<?xml version="1.0" encoding="UTF-8"?>
<svg version="1.1" xmlns="http://www.w3.org/2000/svg" width="144" height="144">
<path d="M0 0 C47.52 0 95.04 0 144 0 C144 47.52 144 95.04 144 144 C96.48 144 48.96 144 0 144 C0 96.48 0 48.96 0 0 Z " fill="#ED1C24" transform="translate(0,0)"/>
<path d="M0 0 C9.24 0 18.48 0 28 0 C28 9.57 28 19.14 28 29 C21.07 29 14.14 29 7 29 C7 30.32 7 31.64 7 33 C4.69 33 2.38 33 0 33 C0 22.11 0 11.22 0 0 Z " fill="#FEFAF6" transform="translate(37,100)"/>
<path d="M0 0 C2.64 0 5.28 0 8 0 C8 2.97 8 5.94 8 9 C16.58 9 25.16 9 34 9 C34 10.98 34 12.96 34 15 C25.42 15 16.84 15 8 15 C8 18.63 8 22.26 8 26 C15.26 26 22.52 26 30 26 C30 27.98 30 29.96 30 32 C13.5 32 -3 32 -20 32 C-20 30.02 -20 28.04 -20 26 C-13.4 26 -6.8 26 0 26 C0 22.37 0 18.74 0 15 C-7.92 15 -15.84 15 -24 15 C-24 13.02 -24 11.04 -24 9 C-16.08 9 -8.16 9 0 9 C0 6.03 0 3.06 0 0 Z " fill="#FEFAFC" transform="translate(94,40)"/>
<path d="M0 0 C18.81 0 37.62 0 57 0 C57 5.61 57 11.22 57 17 C54.69 17 52.38 17 50 17 C50 13.37 50 9.74 50 6 C35.81 6 21.62 6 7 6 C7 9.3 7 12.6 7 16 C4.69 16 2.38 16 0 16 C0 10.72 0 5.44 0 0 Z " fill="#FEFBFB" transform="translate(70,80)"/>
<path d="M0 0 C2.31 0 4.62 0 7 0 C7.02505615 0.90355225 7.0501123 1.80710449 7.07592773 2.73803711 C7.17087317 6.0796428 7.27011621 9.42106252 7.37231445 12.76245117 C7.4157163 14.2106424 7.45738744 15.65888654 7.49731445 17.10717773 C7.55489062 19.18489559 7.61862028 21.26234573 7.68359375 23.33984375 C7.72025146 24.59144287 7.75690918 25.84304199 7.79467773 27.13256836 C7.67803906 29.89630504 7.67803906 29.89630504 9 31 C12.33618231 31.14257189 15.65975606 31.04228157 19 31 C19.33 26.38 19.66 21.76 20 17 C21.98 17 23.96 17 26 17 C27.91607895 18.91607895 27.21828453 22.20219091 27.25 24.75 C27.27578125 25.98234375 27.3015625 27.2146875 27.328125 28.484375 C26.97897139 32.22530655 26.3179055 34.07553979 24 37 C20.17959134 38.27346955 16.54535774 38.26233806 12.5625 38.3125 C11.79873047 38.34150391 11.03496094 38.37050781 10.24804688 38.40039062 C9.50748047 38.40876953 8.76691406 38.41714844 8.00390625 38.42578125 C7.33174072 38.44036377 6.6595752 38.45494629 5.96704102 38.4699707 C2.91388943 37.74050356 1.82673264 36.53560646 0 34 C-0.34939929 31.24913809 -0.46885179 28.9116444 -0.390625 26.171875 C-0.38496521 25.42286926 -0.37930542 24.67386353 -0.37347412 23.90216064 C-0.35114057 21.517448 -0.30095386 19.13425592 -0.25 16.75 C-0.22993091 15.13023009 -0.21168085 13.51043654 -0.1953125 11.890625 C-0.15128624 7.92650034 -0.08228298 3.96350768 0 0 Z " fill="#FEF9F8" transform="translate(102,93)"/>
<path d="M0 0 C2.64 0 5.28 0 8 0 C8.94380319 11.64023937 6.16007024 22.13425349 -1.3203125 31.28125 C-5.01393211 35.06076774 -8.96115804 38.32038601 -14 40 C-15.5 38.6875 -15.5 38.6875 -17 37 C-17 36.01 -17 35.02 -17 34 C-15.390625 32.5703125 -15.390625 32.5703125 -13.25 31.125 C-5.90331285 25.83849496 -2.81739274 20.00589588 -1.37109375 11.1484375 C-0.85267633 7.43881434 -0.41203134 3.72282438 0 0 Z " fill="#FDF3F4" transform="translate(84,93)"/>
<path d="M0 0 C4.29 0 8.58 0 13 0 C13 5.61 13 11.22 13 17 C8.71 17 4.42 17 0 17 C0 11.39 0 5.78 0 0 Z " fill="#ED1C27" transform="translate(44,106)"/>
<path d="M0 0 C10.89 0 21.78 0 33 0 C33 1.98 33 3.96 33 6 C22.11 6 11.22 6 0 6 C0 4.02 0 2.04 0 0 Z " fill="#FEFCFF" transform="translate(34,57)"/>
<path d="M0 0 C8.91 0 17.82 0 27 0 C27 1.98 27 3.96 27 6 C18.09 6 9.18 6 0 6 C0 4.02 0 2.04 0 0 Z " fill="#FEFFFC" transform="translate(38,43)"/>
<path d="M0 0 C8.58 0 17.16 0 26 0 C26 1.98 26 3.96 26 6 C17.42 6 8.84 6 0 6 C0 4.02 0 2.04 0 0 Z " fill="#FEFDFF" transform="translate(38,85)"/>
<path d="M0 0 C8.58 0 17.16 0 26 0 C26 1.98 26 3.96 26 6 C17.42 6 8.84 6 0 6 C0 4.02 0 2.04 0 0 Z " fill="#FEFDFF" transform="translate(38,71)"/>
</svg>
